:SAMPLES-PER-SECOND 30
:FULLY-SPECIFIED
:DEGREES
516
root  50.2048 34.6453 52.7204 6.83165 41.193 -0.0227509
LeftUpLeg  -8.8775 12.1628 -0.93461
LeftLeg  14.9023 12.8111 2.517
LeftFoot  -5.02633 -0.0495891 -1.12979
LeftToes  -11.793 1.61378e-006 8.80029e-008
Spine  4.04881 -0.964855 -3.00022
Spine1  7.98869 -2.22812 -5.21289
RightShoulder  -0.00325627 5.55921 7.40733
RightArm  -44.9841 -22.4461 78.6944
RightForeArm  35.5785 17.5782 3.19205
RightHand  0.210126 -5.68879 -3.8528
LeftShoulder1  0.121118 -1.23552 -10.8754
LeftArm  -24.5097 8.31075 -58.1099
LeftForeArm  33.1154 -13.5692 -2.43176
LeftHand  0.128868 2.83288 4.82637
HEad  -9.46126 -17.1327 -2.90253
RightUpLeg  -29.0466 -9.06993 -4.44582
RightLeg  19.484 -4.79168 -1.35453
RightFoot  2.02385 0.0163302 -0.12372
RightToes  -31.45 -0.1479 -0.255974
517
root  50.2795 34.604 53.033 7.30421 42.2186 0.250824
LeftUpLeg  -8.89326 12 -0.763901
LeftLeg  15.1822 12.0128 2.42307
LeftFoot  -5.32679 -0.0503631 -1.12649
LeftToes  -12.4929 1.61378e-006 8.80029e-008
Spine  4.07693 -1.08704 -3.01649
Spine1  8.04275 -2.56788 -5.13821
RightShoulder  -0.00217091 5.4173 7.36512
RightArm  -44.0139 -21.5917 78.6192
RightForeArm  34.8577 18.1393 3.30189
RightHand  0.207137 -5.64949 -3.83482
LeftShoulder1  0.133565 -1.43605 -10.8707
LeftArm  -24.2726 7.05599 -58.0017
LeftForeArm  33.1073 -13.8095 -2.47653
LeftHand  0.127128 2.76178 4.81795
HEad  -9.45891 -17.7156 -2.78272
RightUpLeg  -29.1369 -8.80818 -4.65103
RightLeg  15.3384 -7.812 -1.60395
RightFoot  3.11977 0.0320804 -0.385991
RightToes  -31.9082 -0.147133 -0.255257
518
root  50.3811 34.5533 53.4047 7.9953 43.3421 0.71402
LeftUpLeg  -8.83293 11.7983 -0.655323
LeftLeg  15.3125 11.145 2.27658
LeftFoot  -5.58622 -0.0523863 -1.09966
LeftToes  -13.3253 1.61378e-006 8.80029e-008
Spine  4.06641 -1.15851 -3.03094
Spine1  8.01954 -2.79772 -5.07187
RightShoulder  -0.00069675 5.31388 7.32339
RightArm  -42.6963 -20.7214 78.3514
RightForeArm  34.152 18.7433 3.42087
RightHand  0.205689 -5.62084 -3.8498
LeftShoulder1  0.142782 -1.5537 -10.8118
LeftArm  -24.0758 5.8286 -58.1653
LeftForeArm  32.9321 -14.1349 -2.53743
LeftHand  0.125449 2.78086 4.77781
HEad  -9.44761 -18.4555 -2.65922
RightUpLeg  -29.0897 -8.7673 -5.05287
RightLeg  11.7647 -10.0305 -1.41306
RightFoot  4.80858 0.058401 -0.813647
RightToes  -31.8034 -0.145814 -0.253986
519
root  50.516 34.4897 53.8455 8.79767 44.4337 1.41882
LeftUpLeg  -8.48696 11.4649 -0.606765
LeftLeg  15.2569 10.4208 2.11989
LeftFoot  -5.83797 -0.0541764 -1.07715
LeftToes  -14.3487 1.61378e-006 8.80029e-008
Spine  4.0293 -1.14763 -3.05841
Spine1  7.94397 -2.83817 -5.06066
RightShoulder  0.00109076 5.33336 7.27664
RightArm  -41.3665 -19.8878 77.9063
RightForeArm  33.4898 19.3285 3.53694
RightHand  0.204996 -5.61835 -3.88226
LeftShoulder1  0.148406 -1.6453 -10.6758
LeftArm  -23.9709 4.90877 -58.581
LeftForeArm  32.5376 -14.6807 -2.64007
LeftHand  0.122592 2.74587 4.72978
HEad  -9.42214 -19.3337 -2.53204
RightUpLeg  -28.9719 -9.59013 -5.3232
RightLeg  9.38784 -10.1885 -1.00846
RightFoot  5.7876 0.0699285 -1.00563
RightToes  -31.6241 -0.144965 -0.253156
520
root  50.6755 34.4192 54.3821 9.49434 45.5487 2.11304
LeftUpLeg  -7.8877 11.0366 -0.386506
LeftLeg  15.177 9.80309 1.98135
LeftFoot  -6.07844 -0.056144 -1.05742
LeftToes  -15.4972 1.61378e-006 8.80029e-008
Spine  3.96718 -1.08001 -3.03938
Spine1  7.81551 -2.73297 -5.00467
RightShoulder  0.00321022 5.41828 7.31345
RightArm  -40.4278 -18.9076 77.2273
RightForeArm  33.4205 19.4076 3.55268
RightHand  0.207524 -5.47759 -3.9613
LeftShoulder1  0.14905 -1.71042 -10.4818
LeftArm  -23.8315 4.44816 -59.1735
LeftForeArm  31.7993 -15.4905 -2.79346
LeftHand  0.116064 2.64146 4.64879
HEad  -9.37995 -20.2791 -2.39841
RightUpLeg  -28.6832 -11.0717 -5.22421
RightLeg  8.35908 -8.80039 -0.713648
RightFoot  5.38831 0.0553907 -0.799413
RightToes  -31.0596 -0.145607 -0.25376
521
root  50.8615 34.3457 55.0168 10.0438 46.7298 2.71387
LeftUpLeg  -7.11439 10.3727 0.0632677
LeftLeg  15.1947 9.39305 1.90223
LeftFoot  -6.29841 -0.0579255 -1.0528
LeftToes  -16.7366 1.61378e-006 8.80029e-008
Spine  3.86526 -0.989831 -2.95771
Spine1  7.60332 -2.55184 -4.87508
RightShoulder  0.00566316 5.42998 7.42597
RightArm  -39.6301 -17.7868 76.3433
RightForeArm  33.6594 19.0345 3.47866
RightHand  0.210405 -5.43256 -4.05775
LeftShoulder1  0.143653 -1.66852 -10.2956
LeftArm  -23.2891 4.45011 -59.8411
LeftForeArm  31.043 -16.4875 -2.9839
LeftHand  0.109615 2.53331 4.57194
HEad  -9.28938 -21.205 -2.29553
RightUpLeg  -28.0901 -12.5394 -4.95042
RightLeg  8.47811 -7.00555 -0.58351
RightFoot  5.32641 0.0467275 -0.626905
RightToes  -30.6985 -0.148761 -0.256792
522
root  51.0798 34.2869 55.76 9.61253 48.0652 2.18964
LeftUpLeg  -6.19043 9.53848 1.4568
LeftLeg  15.5147 9.08654 1.89328
LeftFoot  -6.68964 -0.0636389 -1.08885
LeftToes  -17.9752 1.61378e-006 8.80029e-008
Spine  3.70784 -0.842068 -2.57498
Spine1  7.2578 -2.2376 -4.21318
RightShoulder  0.0106427 5.38145 7.46742
RightArm  -39.0046 -16.6067 75.2304
RightForeArm  33.6881 17.8031 3.23735
RightHand  0.230061 -5.67272 -4.26606
LeftShoulder1  0.131561 -1.57398 -10.0784
LeftArm  -22.3237 4.93474 -60.7402
LeftForeArm  30.4326 -17.4096 -3.16178
LeftHand  0.0964847 2.2696 4.48425
HEad  -8.91445 -22.1409 -2.25326
RightUpLeg  -26.79 -13.6184 -4.00796
RightLeg  8.29664 -5.3151 -0.426101
RightFoot  7.54925 0.0709345 -0.697526
RightToes  -32.007 -0.157983 -0.26567
